<?xml version="1.0" encoding="utf-8"?>
<!-- Generator: Adobe Illustrator 17.1.0, SVG Export Plug-In . SVG Version: 6.00 Build 0)  -->
<!DOCTYPE svg PUBLIC "-//W3C//DTD SVG 1.1//EN" "http://www.w3.org/Graphics/SVG/1.1/DTD/svg11.dtd">
<svg version="1.1" id="Layer_1" xmlns="http://www.w3.org/2000/svg" xmlns:xlink="http://www.w3.org/1999/xlink" x="0px" y="0px"
	 viewBox="0 0 200 200" enable-background="new 0 0 200 200" xml:space="preserve">
<path fill="#FFA102" d="M100.1,0C44.9,0,0.1,44.8,0.1,100c0,55.2,44.8,100,100,100c55.2,0,100-44.8,100-100
	C200.1,44.8,155.3,0,100.1,0z M101,169.9c-11.1,0-19.4-9-19.4-19.4c0-10.4,8.3-19.4,19.4-19.4c11.1,0,19.4,9,19.4,19.4
	C120.4,160.9,112.2,169.9,101,169.9z M115.2,78.3c-4.1,12.4-8.1,25-8.6,38.1c-0.2,3.8-1.1,7.4-6.5,7.4c-5.4,0-6.3-3.6-6.5-7.4
	c-0.5-13.1-4.5-25.7-8.6-38.1c-2.3-7.2-5.2-16-5.2-23.4c0-12.8,6.3-24.8,20.3-24.8s20.3,12,20.3,24.8
	C120.4,62.3,117.5,71.1,115.2,78.3z"/>
</svg>
