<?xml version="1.0" encoding="utf-8"?>
<!-- Generator: Adobe Illustrator 17.1.0, SVG Export Plug-In . SVG Version: 6.00 Build 0)  -->
<!DOCTYPE svg PUBLIC "-//W3C//DTD SVG 1.1//EN" "http://www.w3.org/Graphics/SVG/1.1/DTD/svg11.dtd">
<svg version="1.1" id="Layer_1" xmlns="http://www.w3.org/2000/svg" xmlns:xlink="http://www.w3.org/1999/xlink" x="0px" y="0px"
	 viewBox="0 0 200 200" enable-background="new 0 0 200 200" xml:space="preserve">
<g>
	<path fill="#C9C9C9" d="M100,200C44.9,200,0,155.1,0,100C0,44.9,44.9,0,100,0c55.1,0,100,44.9,100,100C200,155.1,155.1,200,100,200
		z M100,5.7C48,5.7,5.7,48,5.7,100c0,52,42.3,94.3,94.3,94.3c52,0,94.3-42.3,94.3-94.3C194.3,48,152,5.7,100,5.7z"/>
</g>
<path fill="#C9C9C9" d="M157.3,62.7c-3.5-3.5-9.2-3.5-12.7,0L80,127.3l-24.6-24.6c-3.5-3.5-9.2-3.5-12.7,0c-3.5,3.5-3.5,9.2,0,12.7
	l31,31c1.7,1.7,4,2.6,6.3,2.6c2.3,0,4.6-0.9,6.3-2.6l71-71C160.8,71.9,160.8,66.2,157.3,62.7z"/>
</svg>
